<?xml version="1.0" standalone="no"?>
<!DOCTYPE svg PUBLIC "-//W3C//DTD SVG 1.1//EN" "http://www.w3.org/Graphics/SVG/1.1/DTD/svg11.dtd" >
<svg>
<metadata>
Created by FontForge 20120731 at Sat Sep 19 04:23:50 2020
 By www
Copyright (c) 2017 Toyota Motor Sales, U.S.A., Inc. All rights reserved.
</metadata>
<defs>
<font id="ToyotaType-Bold" horiz-adv-x="597" >
  <font-face 
    font-family="ToyotaType-Bold"
    font-weight="700"
    font-stretch="normal"
    units-per-em="1000"
    panose-1="2 11 8 2 2 2 2 2 2 4"
    ascent="800"
    descent="-200"
    x-height="508"
    cap-height="710"
    bbox="-43 -226 1301 929"
    underline-thickness="78"
    underline-position="-52"
    unicode-range="U+0020-2122"
  />
<missing-glyph horiz-adv-x="600" 
d="M30 752h540v-962h-540v962zM500 -140v822h-400v-822h400z" />
    <glyph glyph-name=".notdef" horiz-adv-x="600" 
d="M30 752h540v-962h-540v962zM500 -140v822h-400v-822h400z" />
    <glyph glyph-name=".null" horiz-adv-x="0" 
 />
    <glyph glyph-name="nonmarkingreturn" horiz-adv-x="333" 
 />
    <glyph glyph-name="space" unicode=" " horiz-adv-x="203" 
 />
    <glyph glyph-name="exclam" unicode="!" horiz-adv-x="337" 
d="M78 710h180l-27 -446h-126zM104 10q-27 27 -27 65t27 65t65 27t65 -27t27 -65t-27 -65t-65 -27t-65 27z" />
    <glyph glyph-name="quotedbl" unicode="&#x22;" horiz-adv-x="452" 
d="M258 710h143l-22 -236h-99zM51 710h143l-22 -236h-99z" />
    <glyph glyph-name="numbersign" unicode="#" horiz-adv-x="713" 
d="M546 424l-24 -137h114v-111h-134l-31 -176h-114l31 176h-127l-31 -176h-113l31 176h-118v111h138l24 137h-115v111h134l31 175h114l-31 -175h127l31 175h113l-31 -175h118v-111h-137zM432 424h-127l-24 -137h127z" />
    <glyph glyph-name="dollar" unicode="$" 
d="M465 387q44 -23 70.5 -62t26.5 -100q0 -87 -53.5 -142.5t-152.5 -69.5v-74h-108v70q-61 5 -119 22.5t-102 45.5l41 133q42 -30 98 -46.5t115 -16.5q51 0 78 15.5t27 45.5q0 31 -31 47.5t-104 35.5q-92 24 -148.5 69t-56.5 131q0 84 53 138t149 68v73h108v-71
q53 -4 101 -17.5t81 -32.5l-43 -127q-55 25 -94.5 36t-85.5 11q-44 0 -68 -14t-24 -43q0 -31 30 -47t101 -36q67 -19 111 -42zM190 710z" />
    <glyph glyph-name="percent" unicode="%" horiz-adv-x="929" 
d="M84 363q-50 56 -50 149q0 92 50 148t132 56t132 -56t50 -148q0 -93 -50 -149t-132 -56t-132 56zM633 710h125l-461 -710h-124zM259 436.5q14 24.5 14 75.5q0 99 -57 99t-57 -99q0 -100 57 -100q29 0 43 24.5zM580 50q-50 56 -50 149q0 92 50 148t133 56q82 0 132 -56
t50 -148q0 -93 -50 -149t-132 -56q-83 0 -133 56zM770 199q0 99 -57 99q-58 0 -58 -99q0 -100 58 -100q57 0 57 100z" />
    <glyph glyph-name="ampersand" unicode="&#x26;" horiz-adv-x="759" 
d="M548 0l-53 55q-104 -65 -222 -65q-74 0 -130.5 24t-88 68.5t-31.5 102.5q0 67 34.5 112t116.5 92q-37 42 -56.5 80t-19.5 79q0 46 25 85.5t74 63.5t117 24q63 0 112.5 -23.5t77 -62.5t27.5 -83q0 -54 -32.5 -100t-108.5 -90l106 -108q52 70 83 168l145 -68
q-43 -116 -122 -206l147 -148h-201zM266.5 582.5q-17.5 -16.5 -17.5 -39.5q0 -21 11 -40.5t39 -48.5q50 29 66 48.5t16 43.5q0 21 -18 37t-48 16q-31 0 -48.5 -16.5zM394 160l-127 132q-41 -26 -56 -47.5t-15 -47.5q0 -31 24.5 -49t65.5 -18q56 0 108 30z" />
    <glyph glyph-name="quotesingle" unicode="'" horiz-adv-x="245" 
d="M51 710h143l-22 -236h-99z" />
    <glyph glyph-name="parenleft" unicode="(" horiz-adv-x="415" 
d="M137 -6q-75 122 -75 316q0 124 32 223.5t101.5 159t177.5 59.5v-116q-93 0 -134 -90.5t-41 -235.5q0 -144 40.5 -233t134.5 -89v-116q-161 0 -236 122z" />
    <glyph glyph-name="parenright" unicode=")" horiz-adv-x="415" 
d="M42 -12q94 0 134.5 89t40.5 233q0 145 -41 235.5t-134 90.5v116q108 0 177.5 -59.5t101.5 -159t32 -223.5q0 -194 -75 -316t-236 -122v116z" />
    <glyph glyph-name="asterisk" unicode="*" horiz-adv-x="477" 
d="M72 389l87 98l-127 28l38 117l120 -52l-14 130h125l-13 -130l119 52l38 -117l-127 -28l87 -98l-101 -72l-65 114l-66 -114z" />
    <glyph glyph-name="plus" unicode="+" 
d="M523 288h-163v-163h-124v163h-163v124h163v163h124v-163h163v-124z" />
    <glyph glyph-name="comma" unicode="," horiz-adv-x="308" 
d="M104 146h160l-114 -290h-140z" />
    <glyph glyph-name="hyphen" unicode="-" horiz-adv-x="435" 
d="M42 338h351v-128h-351v128z" />
    <glyph glyph-name="period" unicode="." horiz-adv-x="308" 
d="M89 10q-27 27 -27 65t27 65t65 27t65 -27t27 -65t-27 -65t-65 -27t-65 27z" />
    <glyph glyph-name="slash" unicode="/" horiz-adv-x="492" 
d="M345 751h137l-335 -920h-137z" />
    <glyph glyph-name="zero" unicode="0" 
d="M105.5 83q-60.5 93 -60.5 271t61 272t193 94t192 -94t60 -272q0 -179 -60.5 -271.5t-191.5 -92.5q-133 0 -193.5 93zM357.5 160.5q19.5 26.5 26 73t6.5 122.5q0 112 -18 166t-73 54q-56 0 -73.5 -53.5t-17.5 -167.5q0 -113 18 -167t73 -54q39 0 58.5 26.5z" />
    <glyph glyph-name="one" unicode="1" horiz-adv-x="447" 
d="M348 717v-717h-161v512l-137 -76v150l237 131h61z" />
    <glyph glyph-name="two" unicode="2" 
d="M49 92l224 238q51 54 72.5 91.5t21.5 72.5t-23.5 57.5t-65.5 22.5q-83 0 -168 -88l-70 127q47 51 110.5 79t140.5 28q71 0 125.5 -26.5t84.5 -73t30 -105.5q0 -69 -35 -126.5t-107 -133.5l-105 -114h271v-141h-506v92z" />
    <glyph glyph-name="three" unicode="3" 
d="M141.5 12.5q-61.5 22.5 -106.5 65.5l76 130q42 -38 83.5 -56.5t90.5 -18.5q48 0 75 22.5t27 58.5q0 85 -175 85v129q80 1 113.5 24t33.5 59q0 30 -21 48t-58 18q-39 0 -80 -20.5t-76 -54.5l-69 124q103 94 247 94q61 0 110 -22.5t77 -63.5t28 -93q0 -62 -31 -102t-93 -63
q153 -43 153 -175q0 -62 -32 -109.5t-90 -74.5t-135 -27q-86 0 -147.5 22.5z" />
    <glyph glyph-name="four" unicode="4" 
d="M321 130h-298v111l295 469h164v-450h77v-130h-77v-130h-161v130zM321 260v243l-147 -243h147z" />
    <glyph glyph-name="five" unicode="5" 
d="M31 78l77 131q37 -37 76.5 -56.5t84.5 -19.5q56 0 87.5 26.5t31.5 70.5q0 42 -29 65t-79 23q-52 0 -97 -29l-104 43l41 378h403v-141h-283l-14 -131q31 18 88 18q65 0 118.5 -26t84.5 -78t31 -125q0 -112 -73 -174.5t-200 -62.5q-146 0 -244 88z" />
    <glyph glyph-name="six" unicode="6" 
d="M457 426.5q49 -27.5 76.5 -77.5t27.5 -117q0 -69 -31.5 -124t-88.5 -86.5t-131 -31.5q-78 0 -140 35.5t-98 107.5t-36 177q0 121 48.5 213t149.5 144.5t253 52.5l32 -133q-139 0 -216.5 -44.5t-103.5 -133.5q64 45 148 45q61 0 110 -27.5zM378.5 156.5
q28.5 28.5 28.5 72.5q0 45 -28 73.5t-76 28.5q-34 0 -65 -12t-52 -30q3 -86 34.5 -123.5t82.5 -37.5q47 0 75.5 28.5z" />
    <glyph glyph-name="seven" unicode="7" 
d="M367 568h-321v142h500v-92l-263 -618h-173z" />
    <glyph glyph-name="eight" unicode="8" 
d="M165 18q-59 28 -91.5 76t-32.5 105q0 61 32.5 107.5t99.5 72.5q-47 23 -75 63t-28 92t28.5 94.5t80.5 67t119 24.5t119.5 -24.5t81 -67t28.5 -94.5q0 -53 -27.5 -93t-76.5 -62q67 -26 99.5 -72t32.5 -106q0 -58 -32.5 -106.5t-91 -76.5t-133.5 -28q-74 0 -133 28z
M353.5 471q20.5 20 20.5 49q0 30 -20.5 50.5t-51.5 20.5t-52 -20.5t-21 -50.5t20.5 -49.5t52.5 -19.5q31 0 51.5 20zM368 146.5q27 26.5 27 64.5q0 40 -27 66t-67 26t-67 -26.5t-27 -65.5q0 -38 27 -64.5t67 -26.5t67 26.5z" />
    <glyph glyph-name="nine" unicode="9" 
d="M424.5 685.5q62.5 -34.5 99.5 -106.5t37 -178q0 -121 -48 -213.5t-147 -145t-245 -52.5l-32 133q136 0 210.5 44.5t98.5 132.5q-61 -47 -141 -47q-66 0 -116 28.5t-78 79.5t-28 117q0 69 32 124.5t89 86.5t131 31q75 0 137.5 -34.5zM217.5 408.5q28.5 -27.5 75.5 -27.5
q36 0 67.5 13.5t49.5 35.5q-4 80 -35 116t-82 36q-48 0 -76 -28t-28 -72q0 -46 28.5 -73.5z" />
    <glyph glyph-name="colon" unicode=":" horiz-adv-x="308" 
d="M89 340q-27 27 -27 65t27 65t65 27t65 -27t27 -65t-27 -65t-65 -27t-65 27zM89 10q-27 27 -27 65t27 65t65 27t65 -27t27 -65t-27 -65t-65 -27t-65 27z" />
    <glyph glyph-name="semicolon" unicode=";" horiz-adv-x="308" 
d="M89 340q-27 27 -27 65t27 65t65 27t65 -27t27 -65t-27 -65t-65 -27t-65 27zM93 146h160l-114 -290h-140z" />
    <glyph glyph-name="less" unicode="&#x3c;" 
d="M524 456l-341 -106l341 -106v-125l-450 153v156l450 153v-125z" />
    <glyph glyph-name="equal" unicode="=" 
d="M73 528h450v-125h-450v125zM73 297h450v-125h-450v125z" />
    <glyph glyph-name="greater" unicode="&#x3e;" 
d="M523 428v-156l-450 -153v125l341 106l-341 106v125z" />
    <glyph glyph-name="question" unicode="?" horiz-adv-x="520" 
d="M199.5 338.5q11.5 31.5 53.5 74.5q43 42 60 66.5t17 49.5q0 28 -18.5 44t-52.5 16q-37 0 -63.5 -22t-42.5 -57l-118 79q26 60 84.5 99.5t150.5 39.5q64 0 113 -24t75.5 -66t26.5 -95q0 -56 -20.5 -94t-62.5 -76q-40 -37 -62 -63t-22 -45h-130q0 42 11.5 73.5zM193 10
q-27 27 -27 65t27 65t65 27t65 -27t27 -65t-27 -65t-65 -27t-65 27z" />
    <glyph glyph-name="at" unicode="@" horiz-adv-x="965" 
d="M580 84v58q-22 -36 -55.5 -50.5t-75.5 -14.5q-60 0 -109 30.5t-77 83.5t-28 116q0 62 28 114.5t77 83t108 30.5q43 0 76 -16t56 -52v58h132v-329h64q18 29 28 67t10 81q0 82 -43.5 150.5t-119.5 108t-168 39.5t-168 -44.5t-120 -121t-44 -168.5q0 -91 44 -168t120 -121.5
t168 -44.5q58 0 111.5 14t92.5 37l18 -104q-35 -22 -96 -37t-126 -15q-122 0 -224 58.5t-160.5 159t-58.5 221.5t58.5 221.5t160 159t224.5 58.5q122 0 223 -53.5t160 -145.5t59 -203q0 -75 -23.5 -143.5t-58.5 -117.5h-263zM548.5 231.5q30.5 31.5 30.5 76.5q0 46 -30 77.5
t-74 31.5t-75 -32t-31 -77t31 -76.5t75 -31.5q43 0 73.5 31.5z" />
    <glyph glyph-name="A" unicode="A" horiz-adv-x="722" 
d="M472 183h-231l-61 -183h-170l259 710h184l258 -710h-177zM428 315l-72 213l-71 -213h143z" />
    <glyph glyph-name="B" unicode="B" horiz-adv-x="645" 
d="M571 310q35 -46 35 -114q0 -57 -26.5 -101.5t-76 -69.5t-116.5 -25h-311v710h278q102 0 160.5 -49t58.5 -132q0 -50 -23 -91t-72 -67q58 -15 93 -61zM244 420h86q41 0 63 21t22 55q0 37 -23 57.5t-64 20.5h-84v-154zM414.5 156.5q22.5 20.5 22.5 57.5q0 36 -21.5 56
t-60.5 20h-111v-154h109q39 0 61.5 20.5z" />
    <glyph glyph-name="C" unicode="C" horiz-adv-x="667" 
d="M212.5 35.5q-84.5 45.5 -131 128t-46.5 189.5q0 109 48.5 192t134.5 129t194 46q126 0 232 -63l-55 -150q-42 26 -83 41t-87 15q-62 0 -109 -26t-73 -73t-26 -108q0 -59 25 -106.5t72 -75t111 -27.5q95 0 189 61l47 -146q-53 -35 -113 -53.5t-137 -18.5
q-108 0 -192.5 45.5z" />
    <glyph glyph-name="D" unicode="D" horiz-adv-x="754" 
d="M547 666.5q81 -43.5 126.5 -123.5t45.5 -185t-45.5 -186.5t-127 -126.5t-185.5 -45h-285v710h285q105 0 186 -43.5zM487 201q56 56 56 156q0 99 -56.5 153.5t-152.5 54.5h-90v-420h90q97 0 153 56z" />
    <glyph glyph-name="E" unicode="E" horiz-adv-x="588" 
d="M76 710h445v-147h-277v-137h269v-142h-269v-137h286v-147h-454v710z" />
    <glyph glyph-name="F" unicode="F" horiz-adv-x="550" 
d="M76 710h442v-147h-274v-142h260v-146h-260v-275h-168v710z" />
    <glyph glyph-name="G" unicode="G" horiz-adv-x="786" 
d="M730 389v-390h-152v77q-32 -38 -85 -62.5t-123 -24.5q-94 0 -170.5 45.5t-120.5 128t-44 188.5q0 112 49.5 195.5t135 128.5t190.5 45q138 0 266 -84l-61 -151q-98 78 -204 78q-87 0 -143.5 -54t-56.5 -157q0 -99 51.5 -151.5t135.5 -52.5q68 0 112.5 31.5t57.5 77.5
h-175v132h337z" />
    <glyph glyph-name="H" unicode="H" horiz-adv-x="765" 
d="M689 710v-710h-168v282h-277v-282h-168v710h168v-282h277v282h168z" />
    <glyph glyph-name="I" unicode="I" horiz-adv-x="321" 
d="M76 710h168v-710h-168v710z" />
    <glyph glyph-name="J" unicode="J" horiz-adv-x="444" 
d="M3 13l26 144q42 -17 83 -17q49 0 75 35.5t26 107.5v427h168v-449q0 -129 -63.5 -200t-176.5 -71q-73 0 -138 23z" />
    <glyph glyph-name="K" unicode="K" horiz-adv-x="709" 
d="M501 0l-257 363v-363h-168v710h168v-345l246 345h192l-246 -335l272 -375h-207z" />
    <glyph glyph-name="L" unicode="L" horiz-adv-x="534" 
d="M514 150v-150h-438v710h168v-560h270z" />
    <glyph glyph-name="M" unicode="M" horiz-adv-x="924" 
d="M76 710h223l160 -320l174 320h215v-710h-165v501l-158 -307h-132l-154 307v-501h-163v710z" />
    <glyph glyph-name="N" unicode="N" horiz-adv-x="784" 
d="M708 710v-710h-162l-310 453v-453h-160v710h163l309 -453v453h160z" />
    <glyph glyph-name="O" unicode="O" horiz-adv-x="818" 
d="M217 35q-85 45 -133.5 128t-48.5 192t48.5 192t133.5 128t192 45t192 -45t133.5 -127.5t48.5 -189.5q0 -108 -48.5 -191.5t-134 -130t-192.5 -46.5q-106 0 -191 45zM512 175q45 26 70.5 73t25.5 107t-25.5 107t-70.5 73t-103 26t-103 -26t-70 -73t-25 -107t25 -107
t70 -73t103 -26t103 26z" />
    <glyph glyph-name="P" unicode="P" horiz-adv-x="617" 
d="M477.5 678.5q55.5 -31.5 84 -84t28.5 -114.5t-28.5 -116.5t-84.5 -88.5t-133 -34h-100v-241h-168v710h268q78 0 133.5 -31.5zM384 403.5q29 26.5 29 76.5q0 47 -28.5 70.5t-79.5 23.5h-61v-197h61q50 0 79 26.5z" />
    <glyph glyph-name="Q" unicode="Q" horiz-adv-x="825" 
d="M608 -10l-32 34q-77 -34 -168 -34q-106 0 -191 45t-133.5 128t-48.5 192t48.5 192t133.5 128t192 45t192 -45t133.5 -127.5t48.5 -189.5q0 -76 -24 -140t-69 -112l110 -116h-192zM453 153l-115 121h192l42 -44q36 53 36 125q0 60 -25.5 107t-70.5 73t-103 26t-103 -26
t-70 -73t-25 -107t25 -107t70 -73t103 -26q25 0 44 4z" />
    <glyph glyph-name="R" unicode="R" horiz-adv-x="659" 
d="M303 266h-59v-266h-168v710h273q77 0 132 -28t83 -76t28 -107q0 -65 -33.5 -119t-96.5 -84l190 -296h-196zM244 397h77q43 0 68.5 23t25.5 66t-25 65.5t-68 22.5h-78v-177z" />
    <glyph glyph-name="S" unicode="S" horiz-adv-x="592" 
d="M154 8q-64 18 -113 51l42 154q46 -33 102 -54.5t108 -21.5q43 0 64.5 16.5t21.5 46.5q0 20 -12 33t-36 24.5t-79 31.5q-99 38 -147 84.5t-48 128.5q0 67 32 116.5t90 75.5t134 26q59 0 118.5 -15t96.5 -37l-48 -140q-36 21 -81.5 33.5t-83.5 12.5q-40 0 -63.5 -14.5
t-23.5 -40.5q0 -29 30 -47t103 -44q66 -23 105.5 -47t62 -62t22.5 -98q0 -109 -71.5 -170t-194.5 -61q-67 0 -131 18z" />
    <glyph glyph-name="T" unicode="T" horiz-adv-x="564" 
d="M547 564h-180v-564h-168v564h-182v146h530v-146z" />
    <glyph glyph-name="U" unicode="U" horiz-adv-x="737" 
d="M211 23q-67 33 -103.5 95t-36.5 148v444h168v-425q0 -67 35 -101.5t95 -34.5t95 34.5t35 101.5v425h167v-444q0 -86 -36.5 -148t-104 -95t-157.5 -33t-157 33z" />
    <glyph glyph-name="V" unicode="V" horiz-adv-x="677" 
d="M681 710l-251 -710h-183l-251 710h182l162 -515l161 515h180z" />
    <glyph glyph-name="W" unicode="W" horiz-adv-x="1054" 
d="M1051 710l-210 -710h-177l-137 474l-139 -474h-175l-210 710h183l130 -490l137 490h167l137 -486l129 486h165z" />
    <glyph glyph-name="X" unicode="X" horiz-adv-x="650" 
d="M448 0l-128 232l-127 -232h-185l221 360l-213 350h196l117 -220l129 220h176l-216 -346l226 -364h-196z" />
    <glyph glyph-name="Y" unicode="Y" horiz-adv-x="615" 
d="M390 273v-273h-165v273l-234 437h184l142 -281l143 281h164z" />
    <glyph glyph-name="Z" unicode="Z" horiz-adv-x="602" 
d="M565 145v-145h-532v93l302 471h-281v146h507v-93l-302 -472h306z" />
    <glyph glyph-name="bracketleft" unicode="[" horiz-adv-x="396" 
d="M210 634v-646h144v-118h-278v882h278v-118h-144z" />
    <glyph glyph-name="backslash" unicode="\" horiz-adv-x="492" 
d="M10 751h137l335 -920h-137z" />
    <glyph glyph-name="bracketright" unicode="]" horiz-adv-x="396" 
d="M320 -130h-278v118h144v646h-144v118h278v-882z" />
    <glyph glyph-name="asciicircum" unicode="^" horiz-adv-x="482" 
d="M347 260l-106 341l-106 -341h-125l153 450h156l153 -450h-125z" />
    <glyph glyph-name="underscore" unicode="_" horiz-adv-x="450" 
d="M-5 -92h460v-45h-460v45z" />
    <glyph glyph-name="grave" unicode="`" horiz-adv-x="400" 
d="M288 747h143l122 -169h-126z" />
    <glyph glyph-name="a" unicode="a" horiz-adv-x="574" 
d="M455 470.5q59 -47.5 59 -148.5v-322h-154v61q-25 -32 -67.5 -52t-93.5 -20q-72 0 -116.5 40.5t-44.5 111.5q0 88 78.5 127t242.5 41v7q0 76 -96 76q-76 0 -153 -48l-35 119q41 24 98 39.5t119 15.5q104 0 163 -47.5zM330.5 124.5q28.5 23.5 28.5 66.5v26
q-87 -2 -123.5 -17.5t-36.5 -48.5q0 -24 16 -37t46 -13q41 0 69.5 23.5z" />
    <glyph glyph-name="b" unicode="b" horiz-adv-x="652" 
d="M498.5 484q55.5 -34 87 -94t31.5 -136t-31.5 -136t-87.5 -94t-127 -34q-51 0 -91.5 19.5t-62.5 55.5v-65h-155v752h155v-306q24 34 64 53t92 19q70 0 125.5 -34zM424 164.5q33 33.5 33 89.5q0 57 -33 91t-87 34q-52 0 -87.5 -34.5t-35.5 -90.5q0 -55 35.5 -89t86.5 -34
q55 0 88 33.5z" />
    <glyph glyph-name="c" unicode="c" horiz-adv-x="500" 
d="M166 23q-62 33 -96.5 92.5t-34.5 136.5q0 78 36 138.5t98.5 94t138.5 33.5q52 0 95.5 -13t74.5 -33l-45 -130q-22 16 -51.5 27t-60.5 11q-55 0 -89 -35t-34 -91t33 -90.5t91 -34.5q28 0 61.5 10.5t62.5 28.5l37 -127q-34 -23 -79.5 -37t-96.5 -14q-79 0 -141 33z" />
    <glyph glyph-name="d" unicode="d" horiz-adv-x="648" 
d="M590 752v-752h-155v66q-45 -76 -155 -76q-70 0 -125.5 34t-87.5 94.5t-32 135.5q0 76 31.5 136t87.5 94t125 34q53 0 93 -18.5t63 -51.5v304h155zM404 165q34 34 34 89t-34 90t-88 35t-87.5 -34.5t-33.5 -90.5t33 -89.5t88 -33.5q54 0 88 34z" />
    <glyph glyph-name="e" unicode="e" horiz-adv-x="570" 
d="M385 316q-5 38 -30.5 61.5t-60.5 23.5q-37 0 -62.5 -23t-35.5 -62h189zM307 -10q-80 0 -141.5 33t-96 93t-34.5 137q0 78 34 138.5t93 93.5t132 33q75 0 131 -34t86.5 -97t30.5 -148v-24h-350q8 -49 42.5 -73t91.5 -24q83 0 152 43l37 -118q-82 -53 -208 -53z" />
    <glyph glyph-name="f" unicode="f" horiz-adv-x="384" 
d="M101 379h-83v129h83v53q0 106 48 153t129 47q64 0 124 -26l-27 -129q-38 18 -64 18q-55 0 -55 -69v-47h116v-129h-116v-379h-155v379z" />
    <glyph glyph-name="g" unicode="g" horiz-adv-x="648" 
d="M590 508v-481q0 -82 -38 -137.5t-103 -83t-147 -27.5q-77 0 -131 14t-100 42l39 141q81 -60 183 -60q66 0 104 30t38 83v54q-24 -36 -64.5 -55.5t-95.5 -19.5q-67 0 -122 31.5t-86.5 89t-31.5 132.5q0 73 31.5 132t86.5 92t121 33q104 0 161 -75v65h155zM402.5 175.5
q33.5 35.5 33.5 88.5q0 51 -34.5 87t-86.5 36q-54 0 -87.5 -34.5t-33.5 -88.5q0 -55 33.5 -89.5t88.5 -34.5q53 0 86.5 35.5z" />
    <glyph glyph-name="h" unicode="h" horiz-adv-x="625" 
d="M522 470.5q44 -48.5 44 -141.5v-329h-155v265q0 61 -20.5 88.5t-65.5 27.5q-52 0 -80 -31.5t-28 -88.5v-261h-155v752h155v-318q27 42 71.5 63.5t101.5 21.5q88 0 132 -48.5z" />
    <glyph glyph-name="i" unicode="i" horiz-adv-x="279" 
d="M62 508h155v-508h-155v508zM78.5 606q-25.5 26 -25.5 63q0 38 25.5 63.5t63.5 25.5t64 -25.5t26 -63.5t-26 -63.5t-64 -25.5t-63.5 26z" />
    <glyph glyph-name="j" unicode="j" horiz-adv-x="280" 
d="M-43 -203l21 131q21 -6 37 -6q24 0 35.5 15t11.5 49v522h155v-533q0 -97 -39.5 -144t-119.5 -47q-58 0 -101 13zM76.5 606q-25.5 26 -25.5 63q0 38 25.5 63.5t63.5 25.5t64 -25.5t26 -63.5t-26 -63.5t-64 -25.5t-63.5 26z" />
    <glyph glyph-name="k" unicode="k" horiz-adv-x="589" 
d="M62 752h155v-482l178 238h185l-185 -240l192 -268h-191l-179 261v-261h-155v752z" />
    <glyph glyph-name="l" unicode="l" horiz-adv-x="334" 
d="M102.5 31q-40.5 41 -40.5 124v597h155v-571q0 -57 46 -57q20 0 44 10l16 -122q-51 -22 -106 -22q-74 0 -114.5 41z" />
    <glyph glyph-name="m" unicode="m" horiz-adv-x="943" 
d="M840.5 470.5q43.5 -48.5 43.5 -141.5v-329h-155v265q0 61 -18.5 88.5t-61.5 27.5q-48 0 -73.5 -31t-25.5 -87v-263h-155v265q0 62 -18 89t-61 27q-48 0 -73.5 -31.5t-25.5 -88.5v-261h-155v508h155v-74q26 42 68 63.5t92 21.5q127 0 161 -105q25 52 70.5 78.5t101.5 26.5
q87 0 130.5 -48.5z" />
    <glyph glyph-name="n" unicode="n" horiz-adv-x="625" 
d="M521.5 470.5q44.5 -48.5 44.5 -141.5v-329h-155v265q0 61 -20 88.5t-67 27.5q-52 0 -79.5 -31.5t-27.5 -88.5v-261h-155v508h155v-77q27 43 72.5 65.5t99.5 22.5q88 0 132.5 -48.5z" />
    <glyph glyph-name="o" unicode="o" horiz-adv-x="632" 
d="M170 24q-64 34 -99.5 94.5t-35.5 135.5t35.5 135.5t99.5 94.5t146 34t146 -34t99.5 -94.5t35.5 -135.5t-35.5 -135.5t-99.5 -94.5t-146 -34t-146 34zM403.5 165.5q33.5 34.5 33.5 89.5q0 54 -33.5 88t-86.5 34q-55 0 -88.5 -34t-33.5 -89t33.5 -89t87.5 -34t87.5 34.5z
" />
    <glyph glyph-name="p" unicode="p" horiz-adv-x="652" 
d="M498.5 484q55.5 -34 87 -94t31.5 -136t-31.5 -136t-87.5 -94t-127 -34q-51 0 -91.5 19.5t-62.5 55.5v-275h-155v718h155v-62q24 34 64 53t92 19q70 0 125.5 -34zM424 164.5q33 33.5 33 89.5q0 57 -33 91t-87 34q-52 0 -87.5 -34.5t-35.5 -90.5q0 -55 35.5 -89t86.5 -34
q55 0 88 33.5z" />
    <glyph glyph-name="q" unicode="q" horiz-adv-x="648" 
d="M590 508v-718h-155v276q-45 -76 -155 -76q-70 0 -125.5 34t-87.5 94.5t-32 135.5q0 76 31.5 136t87.5 94t125 34q53 0 93 -18.5t63 -51.5v60h155zM404 165q34 34 34 89t-34 90t-88 35t-87.5 -34.5t-33.5 -90.5t33 -89.5t88 -33.5q54 0 88 34z" />
    <glyph glyph-name="r" unicode="r" horiz-adv-x="402" 
d="M404 508l-22 -149q-25 9 -54 9q-58 0 -85.5 -35t-27.5 -109v-224h-153v508h153v-81q21 48 52.5 70t69.5 22q34 0 67 -11z" />
    <glyph glyph-name="s" unicode="s" horiz-adv-x="489" 
d="M128 3.5q-54 13.5 -89 37.5l35 121q37 -27 83 -43.5t88 -16.5q25 0 40 9t15 26q0 20 -21 31t-79 30q-49 17 -79.5 34t-49.5 45.5t-19 72.5q0 79 56 124t150 45q47 0 92.5 -11.5t79.5 -31.5l-26 -114q-33 19 -73.5 32t-74.5 13q-24 0 -38.5 -8t-14.5 -24q0 -18 19.5 -28
t61.5 -21q87 -22 126.5 -58t39.5 -101q0 -81 -56 -129t-158 -48q-54 0 -108 13.5z" />
    <glyph glyph-name="t" unicode="t" horiz-adv-x="422" 
d="M141 36q-44 46 -44 137v206h-81v129h81v140l155 19v-159h133v-129h-133v-184q0 -66 55 -66q35 0 85 25l23 -123q-28 -18 -66.5 -29.5t-80.5 -11.5q-83 0 -127 46z" />
    <glyph glyph-name="u" unicode="u" horiz-adv-x="625" 
d="M562 508v-508h-155v76q-28 -44 -74 -65.5t-102 -21.5q-84 0 -128 49.5t-44 140.5v329h155v-264q0 -62 19.5 -89t66.5 -27q52 0 79.5 31t27.5 89v260h155z" />
    <glyph glyph-name="v" unicode="v" horiz-adv-x="543" 
d="M542 508l-192 -508h-154l-195 508h170l107 -319l106 319h158z" />
    <glyph glyph-name="w" unicode="w" horiz-adv-x="844" 
d="M834 508l-159 -508h-157l-94 288l-86 -288h-158l-169 508h170l92 -317l92 317h126l97 -314l86 314h160z" />
    <glyph glyph-name="x" unicode="x" horiz-adv-x="583" 
d="M200 259l-185 249h192l90 -133l94 133h178l-182 -245l187 -263h-186l-93 144l-95 -144h-191z" />
    <glyph glyph-name="y" unicode="y" horiz-adv-x="544" 
d="M543 508l-214 -565q-29 -78 -76.5 -116t-126.5 -38q-56 0 -98 18l18 129q27 -9 50 -9q67 0 92 60l12 31l-199 490h169l110 -316l103 316h160z" />
    <glyph glyph-name="z" unicode="z" horiz-adv-x="503" 
d="M25 62l222 317h-205v129h432v-63l-212 -316h215v-129h-452v62z" />
    <glyph glyph-name="braceleft" unicode="{" horiz-adv-x="400" 
d="M110 -8q0 24 5.5 48.5t16.5 66.5q1 5 9.5 35t8.5 51q0 27 -23.5 43t-68.5 16h-29v118h29q92 0 92 59q0 21 -8.5 51t-9.5 35q-11 42 -16.5 66.5t-5.5 48.5q0 122 166 122h86v-118h-54q-31 0 -48 -11.5t-17 -38.5q0 -20 8.5 -50.5t10.5 -37.5q2 -5 8 -27.5t9.5 -40
t3.5 -29.5q0 -71 -104 -88q104 -17 104 -88q0 -16 -5.5 -39.5t-9.5 -38t-6 -19.5q-2 -7 -10.5 -37.5t-8.5 -50.5q0 -27 17 -38.5t48 -11.5h54v-118h-86q-166 0 -166 122z" />
    <glyph glyph-name="bar" unicode="|" horiz-adv-x="308" 
d="M87 752h134v-962h-134v962z" />
    <glyph glyph-name="braceright" unicode="}" horiz-adv-x="400" 
d="M36 -12h54q31 0 48 11.5t17 38.5q0 20 -8.5 50.5t-10.5 37.5q-2 5 -8 27.5t-9.5 40t-3.5 29.5q0 71 104 88q-104 17 -104 88q0 16 5.5 39.5t9.5 38t6 19.5q2 7 10.5 37.5t8.5 50.5q0 27 -17 38.5t-48 11.5h-54v118h86q166 0 166 -122q0 -24 -5.5 -48.5t-16.5 -66.5
q-1 -5 -9.5 -35t-8.5 -51q0 -29 23.5 -44t68.5 -15h29v-118h-29q-45 0 -68.5 -15t-23.5 -44q0 -21 8.5 -51t9.5 -35q11 -42 16.5 -66.5t5.5 -48.5q0 -122 -166 -122h-86v118z" />
    <glyph glyph-name="asciitilde" unicode="~" 
d="M108.5 392.5q32.5 38.5 76.5 38.5q32 0 122 -25l23 -6q18 -5 34.5 -8.5t29.5 -3.5q32 0 39 43h93q0 -48 -16 -83.5t-40.5 -53.5t-50.5 -18q-41 0 -125 24q-28 8 -50.5 13.5t-34.5 5.5q-16 0 -26 -10.5t-15 -32.5h-93q1 78 33.5 116.5z" />
    <glyph glyph-name="exclamdown" unicode="&#xa1;" horiz-adv-x="337" 
d="M233 490q27 -27 27 -65t-27 -65t-65 -27t-65 27t-27 65t27 65t65 27t65 -27zM259 -210h-180l27 446h126z" />
    <glyph glyph-name="cent" unicode="&#xa2;" horiz-adv-x="526" 
d="M356 113v-113h-91v117q-104 17 -167 87t-63 172q0 68 29 123t81 90.5t120 46.5v74h91v-72q40 -4 76 -15t60 -26l-46 -130q-45 26 -90 32v-247q54 4 111 33l37 -127q-60 -38 -148 -45zM215 308.5q17 -28.5 50 -43.5v224q-33 -14 -50 -43.5t-17 -69.5q0 -39 17 -67.5z" />
    <glyph glyph-name="copyright" unicode="&#xa9;" horiz-adv-x="810" 
d="M222 39q-84 49 -133 133t-49 183t49 183t133 133t183 49t183 -49t133 -133t49 -183t-49 -183t-133 -133t-183 -49t-183 49zM548.5 108q65.5 38 103.5 103.5t38 143.5t-38 143.5t-103.5 103.5t-143.5 38t-143.5 -38t-103.5 -103.5t-38 -143.5t38 -143.5t103.5 -103.5
t143.5 -38t143.5 38zM296.5 159q-54.5 29 -84.5 80t-30 115q0 65 30.5 116.5t84 80.5t119.5 29q44 0 85 -13.5t74 -38.5l-37 -103q-29 23 -60 35t-61 12q-50 0 -82.5 -33.5t-32.5 -83.5q0 -51 33 -84t86 -33q60 0 124 42l33 -102q-70 -48 -158 -48q-69 0 -123.5 29z" />
    <glyph glyph-name="ordfeminine" unicode="&#xaa;" horiz-adv-x="374" 
d="M65.5 427q-27.5 24 -27.5 67q0 53 46.5 76.5t145.5 23.5v6q0 43 -56 43q-48 0 -92 -28l-21 72q24 14 57.5 24t73.5 10q62 0 97.5 -29t35.5 -89v-194h-95v36q-17 -18 -41 -30t-54 -12q-42 0 -69.5 24zM212 485q18 14 18 39v16q-52 0 -72.5 -10t-20.5 -30q0 -14 9 -21.5
t25 -7.5q23 0 41 14z" />
    <glyph glyph-name="registered" unicode="&#xae;" horiz-adv-x="449" 
d="M327.5 684q45.5 -26 71.5 -71.5t26 -102.5t-26 -102.5t-71.5 -71.5t-102.5 -26q-58 0 -103.5 25.5t-71 71.5t-25.5 103t25.5 103t71 71.5t103.5 25.5q57 0 102.5 -26zM331 403.5q41 40.5 41 106.5q0 65 -41 106t-106 41q-66 0 -107 -41t-41 -106q0 -66 41 -106.5
t107 -40.5q65 0 106 40.5zM271 490l55 -88h-67l-44 76h-8v-76h-60v216h84q34 0 54.5 -18.5t20.5 -48.5q0 -19 -9 -35t-26 -26zM207 567v-39h16q21 0 21 20q0 19 -21 19h-16z" />
    <glyph glyph-name="macron" unicode="&#xaf;" horiz-adv-x="400" 
d="M251 705h367v-98h-367v98zM426 508z" />
    <glyph glyph-name="degree" unicode="&#xb0;" horiz-adv-x="392" 
d="M111.5 400.5q-38.5 22.5 -61.5 60.5t-23 83t23 83t61.5 60.5t84.5 22.5t84.5 -22.5t61 -60.5t22.5 -83t-22.5 -83t-61 -60.5t-84.5 -22.5t-84.5 22.5zM237 503q17 17 17 41t-17 41t-41 17t-41 -17t-17 -41t17 -41t41 -17t41 17z" />
    <glyph glyph-name="questiondown" unicode="&#xbf;" horiz-adv-x="520" 
d="M197.5 362q-26.5 27 -26.5 65t26.5 64.5t64.5 26.5t65 -26.5t27 -64.5t-27 -65t-65 -27t-64.5 27zM137 -202q-49 24 -75.5 66t-26.5 94q0 56 21 94.5t63 75.5q83 76 83 109h130q0 -43 -11 -74t-54 -74q-44 -45 -60.5 -68t-16.5 -48q0 -28 19 -44t53 -16q37 0 63.5 22
t42.5 57l117 -80q-27 -59 -85 -98.5t-149 -39.5q-65 0 -114 24z" />
    <glyph glyph-name="Aacute" unicode="&#xc1;" horiz-adv-x="722" 
d="M472 183h-231l-61 -183h-170l259 710h184l258 -710h-177zM428 315l-72 213l-71 -213h143zM401 923h152l-150 -157h-127z" />
    <glyph glyph-name="Eacute" unicode="&#xc9;" horiz-adv-x="588" 
d="M76 710h445v-147h-277v-137h269v-142h-269v-137h286v-147h-454v710zM340 923h152l-150 -157h-127z" />
    <glyph glyph-name="Iacute" unicode="&#xcd;" horiz-adv-x="321" 
d="M76 710h168v-710h-168v710zM200 923h152l-150 -157h-127z" />
    <glyph glyph-name="Ntilde" unicode="&#xd1;" horiz-adv-x="784" 
d="M708 710v-710h-162l-310 453v-453h-160v710h163l309 -453v453h160zM243.5 869.5q29.5 34.5 71.5 34.5q28 0 88 -24q16 -7 31 -13t25 -6q13 0 21 10t12 33h85q-6 -64 -35 -101t-71 -37q-31 0 -86 24q-19 9 -33.5 14t-23.5 5q-13 0 -21.5 -10t-13.5 -33h-85
q6 69 35.5 103.5z" />
    <glyph glyph-name="Oacute" unicode="&#xd3;" horiz-adv-x="818" 
d="M217 35q-85 45 -133.5 128t-48.5 192t48.5 192t133.5 128t192 45t192 -45t133.5 -127.5t48.5 -189.5q0 -108 -48.5 -191.5t-134 -130t-192.5 -46.5q-106 0 -191 45zM512 175q45 26 70.5 73t25.5 107t-25.5 107t-70.5 73t-103 26t-103 -26t-70 -73t-25 -107t25 -107
t70 -73t103 -26t103 26zM448 923h152l-150 -157h-127z" />
    <glyph glyph-name="Uacute" unicode="&#xda;" horiz-adv-x="737" 
d="M211 23q-67 33 -103.5 95t-36.5 148v444h168v-425q0 -67 35 -101.5t95 -34.5t95 34.5t35 101.5v425h167v-444q0 -86 -36.5 -148t-104 -95t-157.5 -33t-157 33zM409 923h152l-150 -157h-127z" />
    <glyph glyph-name="Udieresis" unicode="&#xdc;" horiz-adv-x="737" 
d="M211 23q-67 33 -103.5 95t-36.5 148v444h168v-425q0 -67 35 -101.5t95 -34.5t95 34.5t35 101.5v425h167v-444q0 -86 -36.5 -148t-104 -95t-157.5 -33t-157 33zM204 798.5q-22 22.5 -22 54.5t22 54t54 22t54 -22t22 -54t-22 -54.5t-54 -22.5t-54 22.5zM427 798.5
q-22 22.5 -22 54.5t22 54t54 22t54 -22t22 -54t-22 -54.5t-54 -22.5t-54 22.5z" />
    <glyph glyph-name="aacute" unicode="&#xe1;" horiz-adv-x="574" 
d="M455 470.5q59 -47.5 59 -148.5v-322h-154v61q-25 -32 -67.5 -52t-93.5 -20q-72 0 -116.5 40.5t-44.5 111.5q0 88 78.5 127t242.5 41v7q0 76 -96 76q-76 0 -153 -48l-35 119q41 24 98 39.5t119 15.5q104 0 163 -47.5zM330.5 124.5q28.5 23.5 28.5 66.5v26
q-87 -2 -123.5 -17.5t-36.5 -48.5q0 -24 16 -37t46 -13q41 0 69.5 23.5zM325 747h142l-136 -169h-127z" />
    <glyph glyph-name="eacute" unicode="&#xe9;" horiz-adv-x="570" 
d="M385 316q-5 38 -30.5 61.5t-60.5 23.5q-37 0 -62.5 -23t-35.5 -62h189zM307 -10q-80 0 -141.5 33t-96 93t-34.5 137q0 78 34 138.5t93 93.5t132 33q75 0 131 -34t86.5 -97t30.5 -148v-24h-350q8 -49 42.5 -73t91.5 -24q83 0 152 43l37 -118q-82 -53 -208 -53zM328 747
h142l-136 -169h-127z" />
    <glyph glyph-name="iacute" unicode="&#xed;" horiz-adv-x="279" 
d="M62 508h155v-508h-155v508zM173 747h142l-136 -169h-127z" />
    <glyph glyph-name="ntilde" unicode="&#xf1;" horiz-adv-x="625" 
d="M521.5 470.5q44.5 -48.5 44.5 -141.5v-329h-155v265q0 61 -20 88.5t-67 27.5q-52 0 -79.5 -31.5t-27.5 -88.5v-261h-155v508h155v-77q27 43 72.5 65.5t99.5 22.5q88 0 132.5 -48.5zM175 701.5q30 33.5 71 33.5q35 0 88 -24q17 -8 30.5 -13.5t22.5 -5.5q30 0 36 43h85
q-6 -67 -36.5 -102.5t-72.5 -35.5q-18 0 -36.5 6t-46.5 18q-41 19 -56 19q-27 0 -36 -43h-85q6 71 36 104.5z" />
    <glyph glyph-name="oacute" unicode="&#xf3;" horiz-adv-x="632" 
d="M170 24q-64 34 -99.5 94.5t-35.5 135.5t35.5 135.5t99.5 94.5t146 34t146 -34t99.5 -94.5t35.5 -135.5t-35.5 -135.5t-99.5 -94.5t-146 -34t-146 34zM403.5 165.5q33.5 34.5 33.5 89.5q0 54 -33.5 88t-86.5 34q-55 0 -88.5 -34t-33.5 -89t33.5 -89t87.5 -34t87.5 34.5z
M347 747h142l-136 -169h-127z" />
    <glyph glyph-name="uacute" unicode="&#xfa;" horiz-adv-x="625" 
d="M562 508v-508h-155v76q-28 -44 -74 -65.5t-102 -21.5q-84 0 -128 49.5t-44 140.5v329h155v-264q0 -62 19.5 -89t66.5 -27q52 0 79.5 31t27.5 89v260h155zM344 747h142l-136 -169h-127z" />
    <glyph glyph-name="udieresis" unicode="&#xfc;" horiz-adv-x="625" 
d="M562 508v-508h-155v76q-28 -44 -74 -65.5t-102 -21.5q-84 0 -128 49.5t-44 140.5v329h155v-264q0 -62 19.5 -89t66.5 -27q52 0 79.5 31t27.5 89v260h155zM147 617.5q-22 22.5 -22 54.5t22 54t54 22t54 -22t22 -54t-22 -54.5t-54 -22.5t-54 22.5zM370 617.5
q-22 22.5 -22 54.5t22 54t54 22t54 -22t22 -54t-22 -54.5t-54 -22.5t-54 22.5z" />
    <glyph glyph-name="endash" unicode="&#x2013;" horiz-adv-x="544" 
d="M42 338h460v-128h-460v128z" />
    <glyph glyph-name="quoteleft" unicode="&#x2018;" horiz-adv-x="277" 
d="M119 710h126l-53 -230h-160z" />
    <glyph glyph-name="quoteright" unicode="&#x2019;" horiz-adv-x="277" 
d="M86 710h159l-87 -230h-126z" />
    <glyph glyph-name="quotedblleft" unicode="&#x201c;" horiz-adv-x="512" 
d="M119 710h126l-53 -230h-160zM354 710h126l-53 -230h-160z" />
    <glyph glyph-name="quotedblright" unicode="&#x201d;" horiz-adv-x="512" 
d="M85 710h160l-87 -230h-126zM320 710h160l-87 -230h-126z" />
    <glyph glyph-name="quotedblbase" unicode="&#x201e;" horiz-adv-x="512" 
d="M85 115h160l-87 -230h-126zM320 115h160l-87 -230h-126z" />
    <glyph glyph-name="dagger" unicode="&#x2020;" horiz-adv-x="517" 
d="M492 404l-179 14l17 -534h-143l16 535l-178 -15v143l177 -14l-15 219h143l-15 -218l177 13v-143z" />
    <glyph glyph-name="daggerdbl" unicode="&#x2021;" horiz-adv-x="517" 
d="M311 418v-174l181 13v-143l-177 13l15 -243h-143l14 244l-176 -14v143l180 -15v177l-180 -15v143l177 -14l-15 219h143l-15 -218l177 13v-143z" />
    <glyph glyph-name="bullet" unicode="&#x2022;" horiz-adv-x="390" 
d="M125.5 193.5q-31.5 18.5 -50 50t-18.5 69.5t18.5 69.5t50 50t69.5 18.5t69.5 -18.5t50 -50t18.5 -69.5t-18.5 -69.5t-50 -50t-69.5 -18.5t-69.5 18.5z" />
    <glyph glyph-name="ellipsis" unicode="&#x2026;" horiz-adv-x="924" 
d="M398 10q-27 27 -27 65t27 65t65 27t65 -27t27 -65t-27 -65t-65 -27t-65 27zM705 10q-27 27 -27 65t27 65t65 27t65 -27t27 -65t-27 -65t-65 -27t-65 27zM89 10q-27 27 -27 65t27 65t65 27t65 -27t27 -65t-27 -65t-65 -27t-65 27z" />
    <glyph glyph-name="perthousand" unicode="&#x2030;" horiz-adv-x="1336" 
d="M84 363q-50 56 -50 149q0 92 50 148t132 56t132 -56t50 -148q0 -93 -50 -149t-132 -56t-132 56zM633 710h125l-461 -710h-124zM259 436.5q14 24.5 14 75.5q0 99 -57 99t-57 -99q0 -100 57 -100q29 0 43 24.5zM580 50q-50 56 -50 149q0 92 50 148t133 56q82 0 132 -56
t50 -148q0 -93 -50 -149t-132 -56q-83 0 -133 56zM987.5 50q-49.5 56 -49.5 149q0 92 49.5 148t131.5 56t132 -56t50 -148q0 -93 -49.5 -149t-132.5 -56q-82 0 -131.5 56zM770 199q0 99 -57 99q-58 0 -58 -99q0 -100 58 -100q57 0 57 100zM1177 199q0 99 -58 99
q-57 0 -57 -99q0 -100 57 -100q58 0 58 100z" />
    <glyph glyph-name="guilsinglleft" unicode="&#x2039;" horiz-adv-x="394" 
d="M30 260l161 200h173l-175 -200l175 -200h-173z" />
    <glyph glyph-name="guilsinglright" unicode="&#x203a;" horiz-adv-x="394" 
d="M30 60l175 200l-175 200h173l161 -200l-161 -200h-173z" />
    <glyph glyph-name="trademark" unicode="&#x2122;" horiz-adv-x="907" 
d="M344 619h-116v-293h-95v293h-116v91h327v-91zM831 710v-384h-95v227l-98 -159h-56l-99 159v-227h-95v384h95l127 -200l126 200h95z" />
  </font>
</defs>
</svg>
