<?xml version="1.0" encoding="UTF-8"?>
<svg width="90px" height="60px" viewBox="0 0 90 60" version="1.1" xmlns="http://www.w3.org/2000/svg" xmlns:xlink="http://www.w3.org/1999/xlink">
    <!-- Generator: Sketch 46.2 (44496) - http://www.bohemiancoding.com/sketch -->
    <title>engine</title>
    <desc>Created with Sketch.</desc>
    <defs></defs>
    <g id="Styleguide" stroke="none" stroke-width="1" fill="none" fill-rule="evenodd">
        <g id="engine" stroke="#A7AAAC" stroke-width="2">
            <g id="Page-1" transform="translate(20.000000, 14.000000)">
                <path d="M46,11 L46,17 L43,17 C42.2,17 41.5,16.7 41.1,16 L34.8,6.8 C34.4,6.2 33.6,6 32.9,6 L15.9,6 C15.4,6 14.8,6.2 14.5,6.6 L10.8,10.4 C10.4,10.8 9.9,11 9.4,11 L6,11 C5.448,11 5,11.448 5,12 L5,24 C5,24.552 5.448,25 6,25 L8.845,25 C9.437,25 10.324,25.395 10.718,25.887 L15.352,31.211 C15.747,31.704 16.338,32 17.028,32 L39.9,32 C41,32 42,31.11 42,29.923 L42,24 C42,23.448 42.447,23 43,23 L46,23 L46,29 C46,29.552 46.447,30 47,30 L49,30 C49.553,30 50,29.552 50,29 L50,11 C50,10.448 49.553,10 49,10 L47,10 C46.447,10 46,10.448 46,11 Z" id="Stroke-1"></path>
                <path d="M0,11 L0,25" id="Stroke-3" stroke-linecap="round"></path>
                <path d="M33,0 L17,0" id="Stroke-5" stroke-linecap="round"></path>
                <path d="M25,0 L25,5" id="Stroke-7" stroke-linecap="round"></path>
                <path d="M0,18 L5,18" id="Stroke-9" stroke-linecap="round"></path>
                <path d="M25,13.125 C27.762,13.125 30,15.364 30,18.125 C30,20.886 27.762,23.125 25,23.125 C22.238,23.125 20,20.886 20,18.125 C20,15.364 22.238,13.125 25,13.125 Z" id="Stroke-11" stroke-linecap="round"></path>
            </g>
        </g>
    </g>
</svg>